name Run_30002_IK.mot
datacolumns 164
datarows 4
range 0.87 0.9
endheader
time	         pelvis_tilt	         pelvis_list	     pelvis_rotation	           pelvis_tx	           pelvis_ty	           pelvis_tz	       hip_flexion_r	     hip_adduction_r	      hip_rotation_r	        knee_angle_r	       ankle_angle_r	       hip_flexion_l	     hip_adduction_l	      hip_rotation_l	        knee_angle_l	       ankle_angle_l	    lumbar_extension	      lumbar_bending	     lumbar_rotation	          arm_flex_r	           arm_add_r	           arm_rot_r	        elbow_flex_r	           pro_sup_r	          arm_flex_l	           arm_add_l	           arm_rot_l	        elbow_flex_l	           pro_sup_l	    subtalar_angle_r	         mtp_angle_r	    subtalar_angle_l	         mtp_angle_l	        wrist_flex_r	         wrist_dev_r	        wrist_flex_l	         wrist_dev_l	             LASI_tx	             LASI_ty	             LASI_tz	             RASI_tx	             RASI_ty	             RASI_tz	             LPSI_tx	             LPSI_ty	             LPSI_tz	             RPSI_tx	             RPSI_ty	             RPSI_tz	             RTH1_tx	             RTH1_ty	             RTH1_tz	             RTH2_tx	             RTH2_ty	             RTH2_tz	             RTH3_tx	             RTH3_ty	             RTH3_tz	             LTH1_tx	             LTH1_ty	             LTH1_tz	             LTH2_tx	             LTH2_ty	             LTH2_tz	             LTH3_tx	             LTH3_ty	             LTH3_tz	             RTB1_tx	             RTB1_ty	             RTB1_tz	             RTB2_tx	             RTB2_ty	             RTB2_tz	             RTB3_tx	             RTB3_ty	             RTB3_tz	             LTB1_tx	             LTB1_ty	             LTB1_tz	             LTB2_tx	             LTB2_ty	             LTB2_tz	             LTB3_tx	             LTB3_ty	             LTB3_tz	             RCAL_tx	             RCAL_ty	             RCAL_tz	             RTOE_tx	             RTOE_ty	             RTOE_tz	             RMT5_tx	             RMT5_ty	             RMT5_tz	             LCAL_tx	             LCAL_ty	             LCAL_tz	             LTOE_tx	             LTOE_ty	             LTOE_tz	             LMT5_tx	             LMT5_ty	             LMT5_tz	             LACR_tx	             LACR_ty	             LACR_tz	             RACR_tx	             RACR_ty	             RACR_tz	             CLAV_tx	             CLAV_ty	             CLAV_tz	               C7_tx	               C7_ty	               C7_tz	             RUA1_tx	             RUA1_ty	             RUA1_tz	             RUA2_tx	             RUA2_ty	             RUA2_tz	             RUA3_tx	             RUA3_ty	             RUA3_tz	             RLEL_tx	             RLEL_ty	             RLEL_tz	             RMEL_tx	             RMEL_ty	             RMEL_tz	             LUA1_tx	             LUA1_ty	             LUA1_tz	             LUA2_tx	             LUA2_ty	             LUA2_tz	             LUA3_tx	             LUA3_ty	             LUA3_tz	             LLEL_tx	             LLEL_ty	             LLEL_tz	             LMEL_tx	             LMEL_ty	             LMEL_tz	      RFAsuperior_tx	      RFAsuperior_ty	      RFAsuperior_tz	        RFAradius_tx	        RFAradius_ty	        RFAradius_tz	          RFAulna_tx	          RFAulna_ty	          RFAulna_tz	      LFAsuperior_tx	      LFAsuperior_ty	      LFAsuperior_tz	        LFAradius_tx	        LFAradius_ty	        LFAradius_tz	          LFAulna_tx	          LFAulna_ty	          LFAulna_tz	
0.87	        -13.09307725	          0.03070597	          4.82944849	          0.99721637	          1.02933106	         -0.36050587	         -1.53541977	          3.90302932	         -0.50671464	        -46.89392914	        -15.65502511	         34.97851541	          7.65397536	          6.17286132	        -10.24798182	          1.74898344	          3.27678170	         -0.21251744	          7.91611685	        -20.48222078	        -21.16997445	         -3.03564199	        122.59507072	        114.87272766	        -44.78688541	         -9.83615896	        -13.29403348	        119.91926986	        105.08462093	          0.00000000	          0.00000000	          0.00000000	          0.00000000	          0.00000000	          0.00000000	          0.00000000	          0.00000000	          1.00172149	          1.06971528	         -0.48105181	          1.02585884	          1.06024030	         -0.23649044	          0.84817451	          1.13188182	         -0.40432964	          0.86015581	          1.12528656	         -0.29137113	          0.93757707	          0.94470976	         -0.18521298	          0.84564554	          0.81619416	         -0.20514261	          0.83968200	          0.66070029	         -0.22626037	          0.96494810	          0.95199476	         -0.53807186	          0.94593918	          0.78638851	         -0.48504447	          1.03888174	          0.67554729	         -0.48252285	          0.71143739	          0.43783213	         -0.29539341	          0.63345240	          0.47792908	         -0.22175779	          0.53493675	          0.36123744	         -0.29501104	          1.15817908	          0.47939331	         -0.41364521	          1.09612332	          0.35406881	         -0.45825815	          1.17521354	          0.26376425	         -0.39480056	          0.38357152	          0.40852947	         -0.27077016	          0.42630961	          0.18232175	         -0.34733301	          0.39169149	          0.19675864	         -0.24817174	          1.08782519	          0.09801336	         -0.36170840	          1.31501076	          0.16345205	         -0.34574323	          1.29200465	          0.08077296	         -0.42247237	          0.94991964	          1.56719242	         -0.50691464	          1.02965858	          1.54064531	         -0.20114456	          1.05673375	          1.51264928	         -0.33780078	          0.92860812	          1.57687976	         -0.34375674	          0.94789022	          1.44367009	         -0.11170551	          0.99947201	          1.38531272	         -0.09998558	          0.95216497	          1.30754639	         -0.04192761	          0.93417947	          1.24301909	         -0.01276567	          0.90398877	          1.22077277	         -0.09626987	          0.82308902	          1.50650999	         -0.53124721	          0.82372670	          1.42617755	         -0.56364132	          0.73255119	          1.38592835	         -0.55887293	          0.69461812	          1.32460081	         -0.56871883	          0.70555951	          1.30178123	         -0.48182239	          1.02828552	          1.21755894	         -0.06295192	          1.12483843	          1.24259142	         -0.21180979	          1.14466851	          1.18958323	         -0.17180688	          0.74893078	          1.26340423	         -0.58467971	          0.93491384	          1.23113336	         -0.55173048	          0.90515807	          1.17344061	         -0.58322798	
0.88	        -12.96183963	         -0.05602877	          4.78362098	          0.99788602	          1.02365906	         -0.35973321	          0.31826971	          3.84526504	         -0.56522905	        -52.37985517	        -14.74041689	         34.76987579	          7.55276812	          5.61040592	        -11.21866837	          1.59506853	          3.12956306	         -0.31875115	          7.53264081	        -21.35586202	        -20.78156117	         -3.42997328	        120.41593089	        114.66020936	        -43.89084062	         -9.80541730	        -13.32564438	        119.65371012	        105.09648175	          0.00000000	          0.00000000	          0.00000000	          0.00000000	          0.00000000	          0.00000000	          0.00000000	          0.00000000	          1.00257929	          1.06313620	         -0.47952332	          1.02658610	          1.05575890	         -0.23567144	          0.84884728	          1.12572336	         -0.40404771	          0.86079509	          1.11902781	         -0.29113310	          0.94095269	          0.93861830	         -0.18529455	          0.85205058	          0.80770925	         -0.20399287	          0.85041830	          0.65217766	         -0.22481974	          0.96453574	          0.94551672	         -0.53818548	          0.94560639	          0.78012623	         -0.48425659	          1.03877916	          0.66936043	         -0.48143495	          0.72074749	          0.43345652	         -0.29278784	          0.64514614	          0.47973446	         -0.22025978	          0.54002153	          0.36789262	         -0.29124376	          1.15575854	          0.47172614	         -0.41267209	          1.09198100	          0.34723277	         -0.45737151	          1.16963888	          0.25581874	         -0.39402007	          0.39059659	          0.42405053	         -0.26627884	          0.42305016	          0.19597430	         -0.34211633	          0.38853029	          0.21224914	         -0.24350420	          1.07932011	          0.09374459	         -0.35986195	          1.30778965	          0.15246593	         -0.34592523	          1.28209519	          0.07122666	         -0.42087529	          0.95121908	          1.56027126	         -0.50881091	          1.02978110	          1.53478044	         -0.20178073	          1.05741520	          1.50674072	         -0.33857963	          0.92940555	          1.57147518	         -0.34560822	          0.94546732	          1.43934709	         -0.11297345	          0.99611921	          1.38033745	         -0.10025422	          0.94701265	          1.30338862	         -0.04267014	          0.92732550	          1.23967775	         -0.01299664	          0.89788136	          1.21742704	         -0.09648554	          0.82477124	          1.49771806	         -0.53439987	          0.82673778	          1.41711606	         -0.56572702	          0.73614608	          1.37546363	         -0.56136177	          0.69900762	          1.31371086	         -0.57114421	          0.70988476	          1.29134901	         -0.48397977	          1.02138444	          1.20905316	         -0.06077444	          1.12292948	          1.22652368	         -0.20807258	          1.13869601	          1.17377722	         -0.16597232	          0.75423496	          1.25318414	         -0.58679080	          0.94046329	          1.22324788	         -0.55262676	          0.91156851	          1.16519505	         -0.58425643	
0.89	        -12.87619094	         -0.15982646	          4.73211002	          0.99865242	          1.01692302	         -0.35900697	          2.33106720	          3.63813908	         -0.93223823	        -57.80557147	        -14.04021284	         34.73508502	          7.38002387	          4.45039627	        -13.05477414	          0.35331018	          3.09443954	         -0.39911957	          7.05890132	        -22.28923811	        -20.41697226	         -3.83273758	        118.08892039	        114.79323664	        -42.94397809	         -9.82557456	        -13.30818556	        119.25878691	        105.05190459	          0.00000000	          0.00000000	          0.00000000	          0.00000000	          0.00000000	          0.00000000	          0.00000000	          0.00000000	          1.00372398	          1.05518966	         -0.47810059	          1.02732686	          1.05051271	         -0.23520643	          0.84977133	          1.11825108	         -0.40382500	          0.86164169	          1.11184704	         -0.29086452	          0.94421252	          0.93192052	         -0.18476682	          0.85822239	          0.79855690	         -0.20236726	          0.86141788	          0.64303447	         -0.22232402	          0.96392786	          0.93784161	         -0.53822153	          0.94520118	          0.77282919	         -0.48310901	          1.03840972	          0.66223285	         -0.48059712	          0.73161080	          0.42861452	         -0.28974131	          0.65870540	          0.48010170	         -0.21837366	          0.54746106	          0.37369743	         -0.28758117	          1.15257230	          0.46197740	         -0.41332088	          1.08519403	          0.33892744	         -0.45668187	          1.16124217	          0.24583531	         -0.39412573	          0.40073608	          0.43827922	         -0.26286838	          0.42266625	          0.20830442	         -0.33661877	          0.38846799	          0.22714997	         -0.23845173	          1.06591751	          0.09199900	         -0.35753863	          1.29633837	          0.13494002	         -0.34584346	          1.26564719	          0.05745016	         -0.42028883	          0.95241726	          1.55238640	         -0.51071477	          1.02950773	          1.52788522	         -0.20233502	          1.05796315	          1.49988893	         -0.33932394	          0.93001063	          1.56501222	         -0.34740918	          0.94225022	          1.43402895	         -0.11444629	          0.99205761	          1.37442121	         -0.10039511	          0.94111655	          1.29837219	         -0.04332896	          0.91973131	          1.23564581	         -0.01308469	          0.89131938	          1.21311562	         -0.09675958	          0.82649747	          1.48784715	         -0.53784477	          0.83009516	          1.40686605	         -0.56810353	          0.74023726	          1.36354475	         -0.56440820	          0.70400136	          1.30141410	         -0.57428191	          0.71466826	          1.27946536	         -0.48687072	          1.01345759	          1.19992672	         -0.05818341	          1.11983014	          1.20875549	         -0.20378062	          1.13146521	          1.15665015	         -0.15927163	          0.76013712	          1.24149670	         -0.58942599	          0.94648464	          1.21393898	         -0.55360676	          0.91851432	          1.15552801	         -0.58533630	
0.9	        -12.83769851	         -0.25447911	          4.72938802	          0.99930309	          1.00923866	         -0.35841656	          4.47602985	          3.24234001	         -1.55768394	        -63.08546337	        -13.29177675	         35.01273304	          7.23101736	          2.89212853	        -16.00391605	         -0.84468005	          3.13559445	         -0.49519189	          6.44141182	        -23.23054988	        -20.09584026	         -4.24004679	        115.60213272	        114.98599898	        -41.92804600	         -9.89261874	        -13.26336009	        118.73223806	        105.02007629	          0.00000000	          0.00000000	          0.00000000	          0.00000000	          0.00000000	          0.00000000	          0.00000000	          0.00000000	          1.00476757	          1.04621455	         -0.47673834	          1.02821152	          1.04447257	         -0.23502346	          0.85060209	          1.10976491	         -0.40367724	          0.86249669	          1.10387911	         -0.29056970	          0.94699377	          0.92450718	         -0.18401285	          0.86410519	          0.78876439	         -0.20074495	          0.87262159	          0.63333674	         -0.21912895	          0.96352426	          0.92928116	         -0.53750884	          0.94468604	          0.76466721	         -0.48198027	          1.03794073	          0.65429357	         -0.48045445	          0.74385840	          0.42331500	         -0.28597394	          0.67361633	          0.47933010	         -0.21587648	          0.55709339	          0.37843595	         -0.28386285	          1.14935377	          0.45100645	         -0.41459667	          1.07660782	          0.33004099	         -0.45518002	          1.15007309	          0.23476283	         -0.39313535	          0.41315970	          0.45078694	         -0.26055248	          0.42566680	          0.21894250	         -0.33070229	          0.39171038	          0.24087450	         -0.23309557	          1.04727436	          0.09229943	         -0.35362284	          1.27989036	          0.11357485	         -0.34417861	          1.24315951	          0.04381165	         -0.42181472	          0.95353670	          1.54354694	         -0.51268987	          1.02876399	          1.52008255	         -0.20296327	          1.05843785	          1.49221268	         -0.33997677	          0.93029284	          1.55733877	         -0.34915917	          0.93843625	          1.42779254	         -0.11614867	          0.98742069	          1.36759079	         -0.10054835	          0.93463496	          1.29258338	         -0.04401159	          0.91154537	          1.23106721	         -0.01313458	          0.88436032	          1.20795791	         -0.09709237	          0.82828177	          1.47701707	         -0.54148087	          0.83382088	          1.39554957	         -0.57081107	          0.74481768	          1.35037276	         -0.56801495	          0.70963749	          1.28784083	         -0.57807444	          0.71990378	          1.26635891	         -0.49043607	          1.00473450	          1.19038755	         -0.05514226	          1.11549202	          1.18951508	         -0.19854003	          1.12295352	          1.13836590	         -0.15174947	          0.76664830	          1.22845052	         -0.59249196	          0.95297015	          1.20323189	         -0.55468241	          0.92597642	          1.14451310	         -0.58657352	
